<?xml version="1.0" encoding="UTF-8"?>
<svg width="20px" height="15px" viewBox="0 0 20 15" version="1.1" xmlns="http://www.w3.org/2000/svg" xmlns:xlink="http://www.w3.org/1999/xlink">
    <!-- Generator: Sketch 61.1 (89650) - https://sketch.com -->
    <title>camera</title>
    <desc>Created with Sketch.</desc>
    <g id="Page-1" stroke="none" stroke-width="1" fill="none" fill-rule="evenodd">
        <g id="camera" fill="#000000" fill-rule="nonzero">
            <circle id="Oval" cx="10.0128778" cy="8.5842236" r="3.11457557"></circle>
            <path d="M19.1718427,2.44306418 L14.0255901,2.44306418 L13.8716356,1.24223602 C13.8716356,0.556190476 13.3154451,0 12.6293996,0 L7.32919255,0 C6.643147,0 6.08695652,0.556190476 6.08695652,1.24223602 L5.93300207,2.44306418 L0.82815735,2.44306418 C0.370766046,2.44306418 0,2.79312629 0,3.2505176 L0,13.9337474 C0,14.3911387 0.370766046,14.7826087 0.82815735,14.7826087 L19.1718427,14.7826087 C19.629234,14.7826087 20,14.3911387 20,13.9337474 L20,3.2505176 C20,2.79312629 19.629234,2.44306418 19.1718427,2.44306418 Z M10.0039337,13.6878675 C7.19118012,13.6878675 4.91101449,11.4077019 4.91101449,8.59498965 C4.91101449,5.78223602 7.19118012,3.50207039 10.0039337,3.50207039 C12.8166874,3.50207039 15.096853,5.78223602 15.096853,8.59498965 C15.096853,11.4076605 12.8166874,13.6878675 10.0039337,13.6878675 Z M19.047619,4.63768116 L14.699793,4.63768116 L14.699793,3.35403727 L19.047619,3.35403727 L19.047619,4.63768116 Z" id="Shape"></path>
        </g>
    </g>
</svg>